:SAMPLES-PER-SECOND 30
:FULLY-SPECIFIED
:DEGREES
490
root  -10.6772 38.6069 6.67658 -33.3291 -84.7275 27.8622
RightUpLeg  -14.0637 -6.72361 -0.114533
RightLeg  -1.76012 -13.0244 9.90889
RightFoot  8.61393 -2.17542 12.804
RightToes  0.00048216 0.542163 -0.142577
Spine  16.2636 -2.9719 -7.25402
Spine1  15.2523 -5.98537 4.7989
HEad  34.4789 -12.2217 0.675961
LeftShoulder1  5.84248 -9.71575 -38.0302
LeftArm  -20.6837 3.48488 -17.6711
LeftForeArm  43.8012 -64.2067 -18.9665
LeftHand  -0.25398 0.0180481 5.50724
RightShoulder  5.57348 9.62803 36.4517
RightArm  18.8016 -28.5211 44.2554
RightForeArm  6.40895 25.9815 5.24141
RightHand  -0.235974 -2.27614 -8.32884
LeftUpLeg  17.0913 13.0447 -5.70894
LeftLeg  15.4897 9.9112 -1.2017
LeftFoot  -21.6531 0.168351 0.461954
LeftToes  1.06246e-005 4.65855e-005 -8.18505e-006
491
root  -9.2621 38.2999 6.04047 -55.5711 -83.5934 49.8978
RightUpLeg  -14.0084 -8.14774 -2.90686
RightLeg  -3.37435 -10.6157 10.3237
RightFoot  5.86769 -3.93105 25.8032
RightToes  0.00048216 0.542163 -0.142577
Spine  16.711 -2.20281 -10.8526
Spine1  14.8308 -5.06149 3.23808
HEad  33.6807 -10.5113 1.90737
LeftShoulder1  5.91663 -9.8018 -38.2912
LeftArm  -20.6161 1.50465 -16.2438
LeftForeArm  42.7739 -62.2644 -17.299
LeftHand  -0.25398 0.0180481 5.50724
RightShoulder  5.63989 9.66486 36.8253
RightArm  20.4284 -28.9577 45.0249
RightForeArm  12.0096 26.4398 5.04384
RightHand  -0.177561 -2.61776 -6.80647
LeftUpLeg  14.1834 10.2851 -9.25001
LeftLeg  16.9918 15.2862 -0.790902
LeftFoot  -24.0658 0.419178 2.48593
LeftToes  1.06246e-005 4.65855e-005 -8.18505e-006
492
root  -7.92226 38.2712 5.51698 -68.208 -82.9398 62.5373
RightUpLeg  -14.9633 -11.2098 -4.1148
RightLeg  -1.54008 -5.99384 9.56175
RightFoot  3.72464 -4.15623 30.8361
RightToes  0.00048216 0.542163 -0.142577
Spine  16.9353 -1.54601 -12.0437
Spine1  14.4682 -3.83405 1.21547
HEad  33.407 -8.87658 2.24346
LeftShoulder1  6.08461 -9.97139 -38.9476
LeftArm  -19.5482 0.690621 -15.8817
LeftForeArm  41.5311 -59.1596 -15.0613
LeftHand  -0.25398 0.0180481 5.50724
RightShoulder  5.69145 9.69055 37.1226
RightArm  21.7879 -28.8663 44.5933
RightForeArm  14.5516 26.6009 4.9345
RightHand  -0.181135 -2.37529 -6.41218
LeftUpLeg  11.4604 8.86143 -10.8581
LeftLeg  17.8564 18.4695 -0.575629
LeftFoot  -24.5165 0.548519 3.48471
LeftToes  1.06246e-005 4.65855e-005 -8.18505e-006
493
root  -6.67186 38.6159 5.12595 -82.6857 -83.553 77.1216
RightUpLeg  -17.269 -17.6808 -2.11183
RightLeg  4.50029 2.09398 6.93042
RightFoot  2.22013 -3.39164 28.0576
RightToes  0.00048216 0.542163 -0.142577
Spine  16.8519 -0.865743 -10.5081
Spine1  14.8229 -2.18717 -1.03795
HEad  33.6855 -7.35748 1.71228
LeftShoulder1  6.36398 -10.2297 -40.0739
LeftArm  -18.0137 1.21129 -16.784
LeftForeArm  39.8343 -54.6873 -12.5286
LeftHand  -0.25398 0.0180481 5.50724
RightShoulder  5.80287 9.79573 37.6032
RightArm  23.8181 -27.2827 42.8909
RightForeArm  13.1152 25.0687 4.66493
RightHand  -0.188747 -2.17437 -6.32984
LeftUpLeg  9.53869 6.92106 -11.0779
LeftLeg  16.5268 21.9717 -0.919479
LeftFoot  -22.4207 0.490089 3.64982
LeftToes  1.06246e-005 4.65855e-005 -8.18505e-006
494
root  -5.58593 39.0876 4.85187 -105.162 -84.6173 99.8531
RightUpLeg  -20.1006 -23.3641 1.04731
RightLeg  12.3394 9.35611 3.87069
RightFoot  0.356589 -2.41518 23.3112
RightToes  0.00048216 0.542163 -0.142577
Spine  16.3536 -0.374031 -7.42639
Spine1  15.4405 -0.525164 -3.02424
HEad  34.0864 -5.66008 0.686316
LeftShoulder1  6.6546 -10.4238 -41.4317
LeftArm  -16.8983 3.26934 -18.9192
LeftForeArm  37.6107 -49.0053 -10.0779
LeftHand  -0.25398 0.0180481 5.50724
RightShoulder  5.85667 9.89436 37.6811
RightArm  24.0749 -23.9532 40.7796
RightForeArm  12.7251 21.295 4.82673
RightHand  -0.143517 -2.68385 -5.36152
LeftUpLeg  8.03471 5.04273 -10.3534
LeftLeg  14.4385 25.676 -1.13849
LeftFoot  -19.2699 0.358051 3.49892
LeftToes  1.06246e-005 4.65855e-005 -8.18505e-006
495
root  -4.61598 39.5245 4.62997 -133.85 -85.3638 129.213
RightUpLeg  -21.1427 -20.3828 0.699074
RightLeg  18.6557 7.96926 2.55682
RightFoot  -1.17816 -1.82606 20.275
RightToes  0.00048216 0.542163 -0.142577
Spine  15.787 -0.20973 -4.04424
Spine1  15.4864 0.527381 -4.16601
HEad  34.0387 -3.82522 -0.252888
LeftShoulder1  6.85948 -10.4638 -42.6684
LeftArm  -16.1635 6.74521 -21.8102
LeftForeArm  34.6202 -42.5029 -7.95204
LeftHand  -0.25398 0.0180481 5.50724
RightShoulder  5.76224 9.90123 36.977
RightArm  15.8651 -20.0693 38.6113
RightForeArm  20.2108 16.3703 6.65675
RightHand  -0.0909373 -3.45714 -4.18264
LeftUpLeg  6.37072 4.21293 -8.72249
LeftLeg  12.5193 28.1075 -1.12979
LeftFoot  -16.5086 0.265764 3.70901
LeftToes  1.06246e-005 4.65855e-005 -8.18505e-006
496
root  -3.69994 39.8599 4.39138 -158.572 -85.5608 154.778
RightUpLeg  -21.3269 -15.0785 -1.60706
RightLeg  24.5602 4.61613 2.10196
RightFoot  -1.91151 -1.54665 18.4605
RightToes  0.00048216 0.542163 -0.142577
Spine  15.5668 -0.262982 -1.63626
Spine1  14.6951 0.774345 -4.24221
HEad  33.3531 -2.31146 -0.600784
LeftShoulder1  7.0234 -10.5072 -43.6054
LeftArm  -15.09 11.0443 -24.7778
LeftForeArm  30.9937 -35.3992 -6.13017
LeftHand  -0.25398 0.0180481 5.50724
RightShoulder  5.59956 9.80399 36.0938
RightArm  4.87731 -17.0646 36.3155
RightForeArm  24.9499 13.182 7.07571
RightHand  -0.0946036 -3.77871 -5.17726
LeftUpLeg  4.56446 4.34259 -6.74104
LeftLeg  11.1033 28.6432 -1.23667
LeftFoot  -14.4648 0.202356 4.22293
LeftToes  1.06246e-005 4.65855e-005 -8.18505e-006
497
root  -2.84154 40.0657 4.09786 -170.028 -85.605 166.859
RightUpLeg  -20.9938 -11.6539 -4.42603
RightLeg  30.2024 2.88853 1.58848
RightFoot  -2.09103 -1.3923 16.9186
RightToes  0.00048216 0.542163 -0.142577
Spine  15.5481 -0.362673 -0.956147
Spine1  13.7592 0.47661 -3.60622
HEad  32.3021 -1.32085 -0.276144
LeftShoulder1  7.22572 -10.7012 -44.2841
LeftArm  -13.5699 15.2687 -27.473
LeftForeArm  27.983 -27.6543 -4.45842
LeftHand  -0.25398 0.0180481 5.50724
RightShoulder  5.44267 9.56711 35.6666
RightArm  -2.18774 -14.7992 33.9908
RightForeArm  17.4678 13.2069 6.36845
RightHand  -0.210754 -3.17775 -9.51603
LeftUpLeg  2.78733 4.61751 -5.27912
LeftLeg  10.4791 28.2214 -1.45223
LeftFoot  -12.8803 0.137877 4.45908
LeftToes  1.06246e-005 4.65855e-005 -8.18505e-006
498
root  -2.06203 40.1669 3.75335 -170.395 -85.6416 167.649
RightUpLeg  -19.6683 -9.11378 -7.628
RightLeg  34.5042 1.13325 0.590112
RightFoot  -2.41645 -1.173 14.7251
RightToes  0.00048216 0.542163 -0.142577
Spine  15.2198 -0.39906 -1.55681
Spine1  13.4528 0.0422092 -2.79482
HEad  31.273 -0.664215 0.416057
LeftShoulder1  7.45499 -10.9694 -44.8703
LeftArm  -13.4121 18.869 -29.8126
LeftForeArm  28.5965 -19.8134 -3.24122
LeftHand  -0.25398 0.0180481 5.50724
RightShoulder  5.24232 9.14501 35.4749
RightArm  -5.67464 -12.6006 32.2871
RightForeArm  2.02135 15.6154 5.99774
RightHand  -0.608296 -0.86874 -15.4013
LeftUpLeg  1.15751 4.77012 -4.55254
LeftLeg  10.2772 27.8546 -1.6793
LeftFoot  -11.5833 0.0789695 4.471
LeftToes  1.06246e-005 4.65855e-005 -8.18505e-006
499
root  -1.35088 40.2362 3.38671 -167.237 -85.3295 164.866
RightUpLeg  -17.4468 -6.55935 -10.3458
RightLeg  36.5001 -0.901089 -0.962066
RightFoot  -2.54464 -0.852112 10.8586
RightToes  0.00048216 0.542163 -0.142577
Spine  14.5178 -0.273971 -2.30684
Spine1  13.7129 -0.116292 -2.21021
HEad  30.5204 -0.31496 1.17089
LeftShoulder1  7.6513 -11.1581 -45.4841
LeftArm  -16.8289 22.2 -31.6354
LeftForeArm  35.4976 -13.6923 -2.78887
LeftHand  -0.25398 0.0180481 5.50724
RightShoulder  4.99616 8.63281 35.2016
RightArm  -7.39887 -10.8876 31.6104
RightForeArm  -12.136 20.4265 5.80262
RightHand  -1.16456 1.72951 -19.1892
LeftUpLeg  -0.0871364 4.76747 -4.18174
LeftLeg  9.56051 28.0292 -2.1554
LeftFoot  -10.3095 0.0190186 4.73274
LeftToes  1.06246e-005 4.65855e-005 -8.18505e-006
